# xmcd CD database file
# Copyright (C) 1993-1996 Ti Kan
#
# Track frame offsets:
# 150
# 14910
# 26235
# 38955
# 52907
# 66215
# 75642
# 90757
# 107775
# 117280
# 137185
# 169412
# 189767
# 209950
# 228067
# 262217
# 266365
# 294012
# 320567
#
# Disc length: 4479 seconds
# Revision: 0
# Processed by: cddbd v1.4b41PL1 Copyright (c) Steve Scherf et al.
# Submitted via: CDSpectrumPro v3.2.327
#
DISCID=11117d13
DTITLE=Bob Dylan - Acetates on the track Vol 1 (1962-1965)
DYEAR=1900
DGENRE=
TTITLE0=Instrumental song
TTITLE1=Milkcows Calf's Blues - Goodmorning Blues
TTITLE2=Milkcows Calf's Blues - Goodmorning Blues
TTITLE3=Wichita (Going to Louisiana)
TTITLE4=Wichita (Going to Louisiana)
TTITLE5=What you gonna do
TTITLE6=That's alright Mama
TTITLE7=Hero Blues
TTITLE8=Lonesome Whistle Blues
TTITLE9=I don't believe you
TTITLE10=Chimes of freedom
TTITLE11=Motorpsycho Nightmare
TTITLE12=All I really wanna do
TTITLE13=All I really wanna do
TTITLE14=Mr. Tambourine Man
TTITLE15=You don't have to do that
TTITLE16=Tombstone Blues
TTITLE17=Tombstone Blues
TTITLE18=Queen Jane Approximately
EXTD=Bootleg - Howlin' Wolf Records, Rapid City, S.D., USA
EXTT0=
EXTT1=
EXTT2=
EXTT3=
EXTT4=
EXTT5=Columbia Studios, New York City, 24-25 April 1962
EXTT6=Columbia Studios, New York City, 14 November 1962
EXTT7=
EXTT8=Columbia Studios, New York City, 31 October 1963
EXTT9=
EXTT10=
EXTT11=
EXTT12=Another Side Session, Emmett Grogan Acetates, 9 June 1964
EXTT13=Newport Folk Festival, Rhode Island, Afternoon Workshop, 24 July 1964
EXTT14=Newport Folk Festival, Rhode Island, 26 July 1964
EXTT15=Columbia Studios, New York City, 13 January 1965
EXTT16=
EXTT17=
EXTT18=Columbia Studios, New York City, Highway 61 Sessions, June-Julyl 1965
PLAYORDER=
